<?xml version="1.0" encoding="iso-8859-1"?>
<!-- Generator: Adobe Illustrator 19.0.0, SVG Export Plug-In . SVG Version: 6.00 Build 0)  -->
<svg version="1.1" id="Capa_1" xmlns="http://www.w3.org/2000/svg" xmlns:xlink="http://www.w3.org/1999/xlink" x="0px" y="0px"
	 viewBox="0 0 512 512" style="enable-background:new 0 0 512 512;" xml:space="preserve">
<path style="fill:#FEA832;" d="M512,512H0V152h512V512z"/>
<rect x="256" y="152" style="fill:#FE9922;" width="256" height="360"/>
<g>
	<rect x="310" y="212" style="fill:#FEA832;" width="142" height="30"/>
	<rect x="310" y="272" style="fill:#FEA832;" width="142" height="30"/>
	<rect x="310" y="332" style="fill:#FEA832;" width="142" height="30"/>
	<rect x="310" y="392" style="fill:#FEA832;" width="142" height="30"/>
</g>
<path style="fill:#57555C;" d="M280,90H60V0h220V90z"/>
<path style="fill:#3C3A41;" d="M280,90H170V0h110V90z"/>
<path style="fill:#FEDBAB;" d="M191.213,380h-42.427L60,291.213V60h220v231.213L191.213,380z"/>
<polygon style="fill:#FEC478;" points="170,60 170,380 191.213,380 280,291.213 280,60 "/>
<polygon style="fill:#BF6016;" points="260,512 230,512 230,318 110,318 110,512 80,512 80,288 260,288 "/>
<polygon style="fill:#994C11;" points="170,318 230,318 230,512 260,512 260,288 170,288 "/>
<rect y="482" style="fill:#8C4402;" width="512" height="30"/>
<rect x="256" y="482" style="fill:#723802;" width="256" height="30"/>
<g>
</g>
<g>
</g>
<g>
</g>
<g>
</g>
<g>
</g>
<g>
</g>
<g>
</g>
<g>
</g>
<g>
</g>
<g>
</g>
<g>
</g>
<g>
</g>
<g>
</g>
<g>
</g>
<g>
</g>
</svg>
